<?xml version="1.0" standalone="no"?>
<!DOCTYPE svg PUBLIC "-//W3C//DTD SVG 20010904//EN"
 "http://www.w3.org/TR/2001/REC-SVG-20010904/DTD/svg10.dtd">
<svg version="1.0" xmlns="http://www.w3.org/2000/svg"
 width="500.000000pt" height="500.000000pt" viewBox="0 0 500.000000 500.000000"
 preserveAspectRatio="xMidYMid meet">
<metadata>
Created by potrace 1.11, written by Peter Selinger 2001-2013
</metadata>
<g transform="translate(0.000000,500.000000) scale(0.100000,-0.100000)"
fill="#000000" stroke="none">
<path d="M210 4983 c-96 -33 -161 -100 -194 -198 -15 -47 -16 -223 -14 -2310
l3 -2260 23 -46 c29 -59 92 -122 148 -148 l44 -21 2287 0 2287 0 42 21 c56 27
117 88 143 144 l21 45 0 2285 0 2286 -25 50 c-31 60 -82 110 -144 141 l-46 23
-2265 2 c-2041 2 -2269 1 -2310 -14z"/>
</g>
</svg>
